PathFileType	4	(X/Y/Z)	C:\Users\WrightLab\Desktop\Jo\P5V22.trc
DataRate	CameraRate	NumFrames	NumMarkers	Units	OrigDataRate	OrigDataStartFrame	OrigNumFrames
100.00	100.00	      16	19	mm	100.00	552	      1103
Frame#	Time	Headset_Front			Headset_Back			Headset_Left			Headset_Right			Left_Shoulder			Right_Shoulder			Sternum			C7			Left Elbow			Right Elbow			Left Wrist			Right Wrist			Left ASIS			Right ASIS			S2			Left Knee			Right Knee			Left Ankle			Right Ankle			
		X1	Y1	Z1	X2	Y2	Z2	X3	Y3	Z3	X4	Y4	Z4	X5	Y5	Z5	X6	Y6	Z6	X7	Y7	Z7	X8	Y8	Z8	X9	Y9	Z9	X10	Y10	Z10	X11	Y11	Z11	X12	Y12	Z12	X13	Y13	Z13	X14	Y14	Z14	X15	Y15	Z15	X16	Y16	Z16	X17	Y17	Z17	X18	Y18	Z18	X19	Y19	Z19	

552	5.510	51.70329	1369.50134	-822.83734	-342.64215	1566.92126	-961.41895							-218.32570	1282.40771	-1066.03882										-47.75835	1279.52612	-1039.15344	-526.70123	1177.51563	-1118.66284				-473.08017	1105.76941	-900.71454	-83.28934	894.95111	-1072.70032	-361.41278	915.56635	-1065.49170				-30.24967	477.77374	-1106.18701	-372.03442	481.48587	-1043.81152	-120.72377	63.11709	-1248.74707	-398.65341	103.96977	-1204.52161	
553	5.520	51.98648	1369.23096	-820.60138	-342.37277	1566.72607	-959.08868							-216.09328	1281.65479	-1064.39697										-47.44264	1278.60156	-1037.27307	-525.42188	1177.87061	-1116.72607				-471.68457	1105.14368	-898.17340	-82.87963	894.40991	-1070.66748	-361.61078	915.18481	-1065.45764				-30.43474	477.88239	-1105.59302	-370.92789	482.86197	-1033.71045	-120.72377	63.11709	-1248.74707	-398.16241	108.95811	-1200.84009	
554	5.530	52.33134	1369.21777	-818.15576	-342.27936	1566.33533	-957.68085							-216.99063	1281.21948	-1062.63086										-47.82325	1277.92126	-1034.69055	-524.94373	1177.90161	-1113.71582				-472.12210	1105.80103	-895.28839	-83.28841	893.93982	-1069.82312	-361.63208	915.20886	-1064.92615				-31.42113	478.23633	-1103.65881	-369.22574	483.50116	-1022.06494	-120.20700	63.14362	-1247.28296	-396.91321	113.21495	-1196.97656	
555	5.540	52.43818	1368.89343	-815.97528	-342.10226	1565.88269	-955.42365							-216.67903	1281.46069	-1060.30115										-47.13080	1276.48743	-1032.23352	-524.53174	1178.38123	-1111.28955				-471.95801	1106.31287	-892.69696	-83.09344	893.71704	-1068.63196	-363.45764	915.68115	-1063.05530				-32.28592	477.92502	-1103.04199	-367.05539	485.41852	-1010.36298	-120.72377	63.11709	-1248.74707	-394.65436	115.96353	-1191.95764	
556	5.550	52.42686	1368.80969	-813.46777	-342.07773	1564.99463	-952.92999							-217.63240	1281.17993	-1059.29700										-46.95668	1276.58264	-1030.07446	-523.95245	1178.72766	-1110.04663				-472.31512	1107.20276	-890.20447	-83.13473	893.24438	-1067.04370	-362.97247	915.41144	-1063.73132				-33.41899	477.87152	-1101.71545	-366.70694	489.71725	-1000.93628	-120.72377	63.11709	-1248.74707	-393.81744	117.90854	-1187.31580	
557	5.560	52.14287	1368.78552	-810.74640	-342.05609	1564.32019	-950.07129							-217.72234	1279.92944	-1056.95288										-48.39519	1276.13733	-1027.67200	-524.15125	1180.02991	-1107.99390				-473.91943	1107.86169	-886.88104	-84.74112	892.28229	-1064.94104	-363.44745	915.58984	-1062.51990				-34.78456	478.02133	-1100.25232	-366.06128	494.27258	-991.71533	-120.72377	63.11709	-1248.74707	-392.74835	120.94299	-1180.46851	
558	5.570	51.92155	1368.70410	-809.32623	-342.15744	1563.81714	-947.52612							-217.53384	1279.91638	-1054.39172							-230.18600	1507.19580	-1235.88794	-47.86128	1275.71472	-1024.80200	-524.05420	1179.75684	-1104.82068				-474.07184	1108.00354	-884.23651	-83.13481	892.14191	-1063.49536	-365.01437	915.90704	-1060.79614				-35.39958	477.77512	-1098.92334	-365.48950	497.55151	-983.07611	-120.72377	63.11709	-1248.74707	-392.08115	122.42871	-1173.58325	
559	5.580	52.20996	1367.86768	-805.46875	-342.37988	1563.34119	-945.11060							-218.22325	1279.90894	-1053.07825							-229.99791	1507.78662	-1233.92639	-49.48035	1276.01648	-1023.18127	-524.62885	1180.46533	-1102.61157				-474.73245	1108.80945	-881.15533	-83.61160	891.67004	-1061.90881	-364.96042	915.66382	-1060.22778				-37.82174	477.05157	-1098.10815	-366.08786	501.81219	-976.22192	-120.72377	63.11709	-1248.74707	-390.74008	123.27146	-1165.96411	
560	5.590	51.98818	1367.76074	-802.41479	-342.55048	1562.63257	-941.81671							-218.22382	1279.59058	-1050.77246							-229.83704	1507.99463	-1231.35876	-50.04977	1275.67188	-1019.93243	-524.95026	1179.82837	-1098.45544				-475.10229	1109.02063	-877.98206	-84.72037	892.27734	-1059.94055	-364.89655	915.65686	-1059.41284				-40.56477	476.66232	-1096.23621	-365.78580	504.06915	-969.63409	-120.72377	63.11709	-1248.74707	-393.48584	125.34611	-1155.76294	
561	5.600	51.69233	1367.25488	-798.99567	-342.70081	1562.27979	-938.66797							-218.74443	1279.66162	-1048.03564							-229.84149	1508.20374	-1228.82751	-49.90246	1275.65637	-1017.25720	-524.92450	1180.26172	-1096.34509				-476.74982	1110.34595	-874.55151	-84.73592	892.23694	-1059.94922	-364.70093	915.51062	-1058.35730				-41.76151	476.20282	-1095.05591	-366.33408	508.54932	-963.25964	-120.72377	63.11709	-1248.74707	-391.75763	123.62720	-1145.05933	
562	5.610				-343.11755	1561.82373	-935.97205							-218.71034	1279.36365	-1046.44189							-229.83850	1508.30347	-1225.82983				-524.98730	1180.38574	-1093.17810				-478.07172	1111.31775	-871.41614	-84.95872	891.54852	-1057.40906	-365.17886	915.72272	-1056.64355				-43.41247	476.17450	-1093.22522	-366.89038	511.71481	-958.61212	-120.72377	63.11709	-1248.74707	-390.48694	121.68880	-1134.43713	
563	5.620				-343.43884	1561.42761	-932.87079							-218.70000	1279.05212	-1044.04138							-229.92062	1508.39978	-1222.79736				-525.46918	1180.62695	-1089.97485				-478.18576	1111.87610	-867.63800	-85.75299	891.85065	-1055.92468	-364.99020	915.83057	-1055.59167				-44.63470	476.35324	-1091.76892	-367.50955	513.82996	-954.64282	-120.72377	63.11709	-1248.74707	-390.97003	120.68202	-1124.01160	
564	5.630				-343.93396	1560.41052	-929.20032							-219.87851	1279.06616	-1041.45789							-230.02434	1508.87549	-1220.12244				-525.71997	1181.14099	-1086.73914				-478.86499	1112.50500	-864.19305	-86.42609	891.56592	-1054.08508	-365.63562	915.70807	-1054.50000				-46.65106	475.96793	-1089.97205	-369.83463	516.00311	-951.32715	-120.72377	63.11709	-1248.74707	-393.17526	118.77029	-1112.20959	
565	5.640				-344.48621	1559.71851	-925.91534							-220.32840	1279.44080	-1038.55603							-230.35257	1508.72937	-1217.33325	-53.46965	1275.88135	-1005.89142	-526.16327	1182.16321	-1083.66467				-479.46744	1113.35107	-859.79791	-86.67315	891.22357	-1052.05273	-365.89026	915.58063	-1052.46375				-48.80243	475.78394	-1089.39148	-369.90591	517.48035	-948.11169	-120.72377	63.11709	-1248.74707	-392.29684	116.10137	-1099.44019	
566	5.650				-345.11932	1558.92590	-923.10211							-220.62065	1278.89758	-1036.08142							-230.52112	1509.03320	-1214.32324	-53.73156	1275.52405	-1001.71478	-526.48657	1180.97266	-1078.76257				-481.12668	1113.98511	-855.53223	-88.30889	891.12122	-1049.77930	-366.31262	915.99060	-1050.40247				-51.95605	475.25745	-1088.80969	-370.24020	517.72839	-945.20264	-120.72377	63.11709	-1248.74707	-393.09186	113.85449	-1086.41284	
567	5.660	-249.36044	1475.06445	-834.47516	-345.75003	1558.11682	-919.82080							-221.14555	1278.95142	-1033.12610							-230.87265	1508.77014	-1210.75073	-54.97756	1275.50671	-998.60657	-527.08582	1181.18652	-1074.84131				-480.95596	1114.67529	-851.01050	-89.38860	890.67041	-1049.04797	-367.90680	915.35339	-1047.95605				-54.02087	474.93198	-1087.94019	-371.01260	519.27130	-941.69696	-120.72377	63.11709	-1248.74707	-394.87256	111.40666	-1074.41382	
